<?xml version="1.0" encoding="UTF-8"?>
<svg width="200" height="200" version="1.1" viewBox="0 0 200 200" xmlns="http://www.w3.org/2000/svg">
 <g fill="#007bff">
  <path d="m100 5c-52.467 0-95 42.533-95 95 0 52.467 42.533 95 95 95 52.467 0 95-42.533 95-95 0-52.467-42.533-95-95-95zm0 10c46.944 0 85 38.056 85 85 0 46.944-38.056 85-85 85-46.944 0-85-38.056-85-85 0-46.944 38.056-85 85-85z"/>
  <path d="m75 55v90h50v-20h-30v-70zm24 81c3.866 0 7 3.134 7 7s-3.134 7-7 7-7-3.134-7-7 3.134-7 7-7z"/>
 </g>
</svg>
